<svg xmlns="http://www.w3.org/2000/svg" viewBox="0 0 120 120">
  <!-- 身体 -->
  <ellipse cx="60" cy="75" rx="25" ry="20" fill="#F5F5F5" stroke="#E0E0E0" stroke-width="2"/>
  <!-- 头 -->
  <circle cx="60" cy="45" r="28" fill="#F5F5F5" stroke="#E0E0E0" stroke-width="2"/>
  <!-- 左耳 -->
  <polygon points="38,25 48,5 58,25" fill="#F5F5F5" stroke="#E0E0E0" stroke-width="2"/>
  <polygon points="42,22 48,10 54,22" fill="#FFB6C1"/>
  <!-- 右耳 -->
  <polygon points="62,25 72,5 82,25" fill="#F5F5F5" stroke="#E0E0E0" stroke-width="2"/>
  <polygon points="66,22 72,10 78,22" fill="#FFB6C1"/>
  <!-- 眼睛 - 信仰的眼神 -->
  <ellipse cx="50" cy="42" rx="3" ry="4" fill="#333"/>
  <circle cx="51" cy="40" r="1" fill="white"/>
  <ellipse cx="70" cy="42" rx="3" ry="4" fill="#333"/>
  <circle cx="71" cy="40" r="1" fill="white"/>
  <!-- 鼻子 -->
  <ellipse cx="60" cy="50" rx="2" ry="1.5" fill="#FFB6C1"/>
  <!-- 嘴巴 -->
  <path d="M55,53 Q60,58 65,53" fill="none" stroke="#333" stroke-width="1.5"/>
  <!-- 胡须 -->
  <line x1="35" y1="48" x2="48" y2="50" stroke="#CCC" stroke-width="1"/>
  <line x1="35" y1="52" x2="48" y2="52" stroke="#CCC" stroke-width="1"/>
  <line x1="72" y1="50" x2="85" y2="48" stroke="#CCC" stroke-width="1"/>
  <line x1="72" y1="52" x2="85" y2="52" stroke="#CCC" stroke-width="1"/>
  <!-- 皇冠 -->
  <path d="M48,18 L52,10 L56,16 L60,8 L64,16 L68,10 L72,18" fill="#FFD700" stroke="#FFA500" stroke-width="1.5"/>
  <rect x="48" y="18" width="24" height="4" fill="#FFD700" stroke="#FFA500" stroke-width="1"/>
  <!-- 尾巴 -->
  <path d="M85,75 Q95,65 90,50" fill="none" stroke="#E0E0E0" stroke-width="4" stroke-linecap="round"/>
</svg>